<mxfile host="app.diagrams.net" modified="2024-03-30T03:33:56.916Z" agent="Mozilla/5.0 (Windows NT 10.0; Win64; x64) AppleWebKit/537.36 (KHTML, like Gecko) Chrome/123.0.0.0 Safari/537.36 Edg/123.0.0.0" etag="VSlYdK4679_WEAA24reJ" version="24.2.1" type="github" pages="2">
  <diagram name="Page-1" id="e7e014a7-5840-1c2e-5031-d8a46d1fe8dd">
    <mxGraphModel dx="993" dy="425" grid="1" gridSize="10" guides="1" tooltips="1" connect="1" arrows="1" fold="1" page="1" pageScale="1" pageWidth="1169" pageHeight="826" background="none" math="0" shadow="0">
      <root>
        <mxCell id="0" />
        <mxCell id="1" parent="0" />
        <mxCell id="2" value="Thread 1" style="swimlane;whiteSpace=wrap" parent="1" vertex="1">
          <mxGeometry x="164.5" y="128" width="280" height="570" as="geometry" />
        </mxCell>
        <mxCell id="5" value="" style="ellipse;shape=startState;fillColor=#000000;strokeColor=#ff0000;" parent="2" vertex="1">
          <mxGeometry x="100" y="40" width="30" height="30" as="geometry" />
        </mxCell>
        <mxCell id="6" value="" style="edgeStyle=elbowEdgeStyle;elbow=horizontal;verticalAlign=bottom;endArrow=open;endSize=8;strokeColor=#FF0000;endFill=1;rounded=0" parent="2" source="5" target="7" edge="1">
          <mxGeometry x="100" y="40" as="geometry">
            <mxPoint x="115" y="110" as="targetPoint" />
          </mxGeometry>
        </mxCell>
        <mxCell id="7" value="idle" style="" parent="2" vertex="1">
          <mxGeometry x="60" y="110" width="110" height="50" as="geometry" />
        </mxCell>
        <mxCell id="8" value="user action" style="" parent="2" vertex="1">
          <mxGeometry x="60" y="220" width="110" height="50" as="geometry" />
        </mxCell>
        <mxCell id="9" value="" style="endArrow=open;strokeColor=#FF0000;endFill=1;rounded=0" parent="2" source="7" target="8" edge="1">
          <mxGeometry relative="1" as="geometry" />
        </mxCell>
        <mxCell id="10" value="post command" style="" parent="2" vertex="1">
          <mxGeometry x="60" y="325" width="110" height="50" as="geometry" />
        </mxCell>
        <mxCell id="11" value="" style="endArrow=open;strokeColor=#FF0000;endFill=1;rounded=0" parent="2" source="8" target="10" edge="1">
          <mxGeometry relative="1" as="geometry" />
        </mxCell>
        <mxCell id="12" value="" style="edgeStyle=elbowEdgeStyle;elbow=horizontal;strokeColor=#FF0000;endArrow=open;endFill=1;rounded=0" parent="2" source="10" target="7" edge="1">
          <mxGeometry width="100" height="100" relative="1" as="geometry">
            <mxPoint x="160" y="290" as="sourcePoint" />
            <mxPoint x="260" y="190" as="targetPoint" />
            <Array as="points">
              <mxPoint x="30" y="250" />
            </Array>
          </mxGeometry>
        </mxCell>
        <mxCell id="3" value="Thread 2" style="swimlane;whiteSpace=wrap" parent="1" vertex="1">
          <mxGeometry x="444.5" y="128" width="280" height="570" as="geometry" />
        </mxCell>
        <mxCell id="13" value="" style="ellipse;shape=startState;fillColor=#000000;strokeColor=#ff0000;" parent="3" vertex="1">
          <mxGeometry x="60" y="40" width="30" height="30" as="geometry" />
        </mxCell>
        <mxCell id="14" value="" style="edgeStyle=elbowEdgeStyle;elbow=horizontal;verticalAlign=bottom;endArrow=open;endSize=8;strokeColor=#FF0000;endFill=1;rounded=0" parent="3" source="13" target="15" edge="1">
          <mxGeometry x="40" y="20" as="geometry">
            <mxPoint x="55" y="90" as="targetPoint" />
          </mxGeometry>
        </mxCell>
        <mxCell id="15" value="idle" style="" parent="3" vertex="1">
          <mxGeometry x="20" y="110" width="110" height="50" as="geometry" />
        </mxCell>
        <mxCell id="16" value="check for &#xa;new commands" style="" parent="3" vertex="1">
          <mxGeometry x="20" y="220" width="110" height="50" as="geometry" />
        </mxCell>
        <mxCell id="17" value="" style="endArrow=open;strokeColor=#FF0000;endFill=1;rounded=0" parent="3" source="15" target="16" edge="1">
          <mxGeometry relative="1" as="geometry" />
        </mxCell>
        <mxCell id="18" value="command queue" style="" parent="3" vertex="1">
          <mxGeometry x="20" y="325" width="110" height="50" as="geometry" />
        </mxCell>
        <mxCell id="19" value="" style="endArrow=open;strokeColor=#FF0000;endFill=1;rounded=0" parent="3" source="16" target="18" edge="1">
          <mxGeometry relative="1" as="geometry" />
        </mxCell>
        <mxCell id="21" value="queue empty" style="rhombus;fillColor=#ffffc0;strokeColor=#ff0000;" parent="3" vertex="1">
          <mxGeometry x="150" y="225" width="80" height="40" as="geometry" />
        </mxCell>
        <mxCell id="22" value="yes" style="edgeStyle=elbowEdgeStyle;elbow=horizontal;align=left;verticalAlign=bottom;endArrow=open;endSize=8;strokeColor=#FF0000;exitX=0.5;exitY=0;endFill=1;rounded=0;entryX=0.75;entryY=0.5;entryPerimeter=0" parent="3" source="21" target="25" edge="1">
          <mxGeometry x="-1" relative="1" as="geometry">
            <mxPoint x="160" y="150" as="targetPoint" />
            <Array as="points">
              <mxPoint x="190" y="180" />
            </Array>
          </mxGeometry>
        </mxCell>
        <mxCell id="23" value="no" style="edgeStyle=elbowEdgeStyle;elbow=horizontal;align=left;verticalAlign=top;endArrow=open;endSize=8;strokeColor=#FF0000;endFill=1;rounded=0" parent="3" source="21" target="30" edge="1">
          <mxGeometry x="-1" relative="1" as="geometry">
            <mxPoint x="190" y="305" as="targetPoint" />
          </mxGeometry>
        </mxCell>
        <mxCell id="24" value="" style="endArrow=open;strokeColor=#FF0000;endFill=1;rounded=0" parent="3" source="16" target="21" edge="1">
          <mxGeometry relative="1" as="geometry" />
        </mxCell>
        <mxCell id="25" value="" style="shape=line;strokeWidth=6;strokeColor=#ff0000;rotation=90" parent="3" vertex="1">
          <mxGeometry x="130" y="127.5" width="50" height="15" as="geometry" />
        </mxCell>
        <mxCell id="26" value="" style="edgeStyle=elbowEdgeStyle;elbow=horizontal;verticalAlign=bottom;endArrow=open;endSize=8;strokeColor=#FF0000;endFill=1;rounded=0" parent="3" source="25" target="15" edge="1">
          <mxGeometry x="130" y="90" as="geometry">
            <mxPoint x="230" y="140" as="targetPoint" />
          </mxGeometry>
        </mxCell>
        <mxCell id="30" value="dispatch&#xa;command&#xa;worker thread" style="" parent="3" vertex="1">
          <mxGeometry x="140" y="325" width="110" height="50" as="geometry" />
        </mxCell>
        <mxCell id="31" value="critical&#xa;section" style="shape=note;whiteSpace=wrap;size=17" parent="3" vertex="1">
          <mxGeometry x="105" y="490" width="100" height="50" as="geometry" />
        </mxCell>
        <mxCell id="32" value="" style="endArrow=none;strokeColor=#FF0000;endFill=0;rounded=0;dashed=1" parent="3" source="18" target="31" edge="1">
          <mxGeometry relative="1" as="geometry" />
        </mxCell>
        <mxCell id="34" value="" style="whiteSpace=wrap;strokeColor=#FF0000;fillColor=#FF0000" parent="3" vertex="1">
          <mxGeometry x="245" y="395" width="5" height="45" as="geometry" />
        </mxCell>
        <mxCell id="41" value="" style="edgeStyle=elbowEdgeStyle;elbow=horizontal;entryX=0;entryY=0.5;strokeColor=#FF0000;endArrow=open;endFill=1;rounded=0" parent="3" source="30" target="34" edge="1">
          <mxGeometry width="100" height="100" relative="1" as="geometry">
            <mxPoint x="60" y="480" as="sourcePoint" />
            <mxPoint x="160" y="380" as="targetPoint" />
            <Array as="points">
              <mxPoint x="195" y="400" />
            </Array>
          </mxGeometry>
        </mxCell>
        <mxCell id="4" value="Thread 3" style="swimlane;whiteSpace=wrap" parent="1" vertex="1">
          <mxGeometry x="780" y="200" width="290" height="570" as="geometry" />
        </mxCell>
        <mxCell id="33" value="process&#xa;command" style="" parent="4" vertex="1">
          <mxGeometry x="90" y="405" width="110" height="50" as="geometry" />
        </mxCell>
        <mxCell id="35" value="" style="edgeStyle=elbowEdgeStyle;elbow=horizontal;strokeColor=#FF0000;endArrow=open;endFill=1;rounded=0;entryX=0.25;entryY=0.5;entryPerimeter=0" parent="4" target="25" edge="1">
          <mxGeometry width="100" height="100" relative="1" as="geometry">
            <mxPoint x="-30" y="410" as="sourcePoint" />
            <mxPoint x="-120" y="120" as="targetPoint" />
            <Array as="points">
              <mxPoint x="-10" y="135" />
            </Array>
          </mxGeometry>
        </mxCell>
        <mxCell id="37" value="" style="edgeStyle=none;strokeColor=#FF0000;endArrow=open;endFill=1;rounded=0" parent="4" target="33" edge="1">
          <mxGeometry width="100" height="100" relative="1" as="geometry">
            <mxPoint x="-30" y="429.5" as="sourcePoint" />
            <mxPoint x="90" y="429.5" as="targetPoint" />
          </mxGeometry>
        </mxCell>
        <mxCell id="38" value="" style="ellipse;shape=endState;fillColor=#000000;strokeColor=#ff0000" parent="4" vertex="1">
          <mxGeometry x="130" y="500" width="30" height="30" as="geometry" />
        </mxCell>
        <mxCell id="39" value="" style="endArrow=open;strokeColor=#FF0000;endFill=1;rounded=0" parent="4" source="33" target="38" edge="1">
          <mxGeometry relative="1" as="geometry" />
        </mxCell>
        <mxCell id="20" value="" style="endArrow=open;strokeColor=#FF0000;endFill=1;rounded=0" parent="1" source="10" target="18" edge="1">
          <mxGeometry relative="1" as="geometry" />
        </mxCell>
      </root>
    </mxGraphModel>
  </diagram>
  <diagram id="f6Hj0GqjzjKtEBF5dJxf" name="PÃ¡gina-2">
    <mxGraphModel dx="2642" dy="1942" grid="1" gridSize="10" guides="1" tooltips="1" connect="1" arrows="1" fold="1" page="1" pageScale="1" pageWidth="827" pageHeight="1169" math="0" shadow="0">
      <root>
        <mxCell id="0" />
        <mxCell id="1" parent="0" />
        <mxCell id="AjMZNirVGoG8k2Hr6zvE-3" value="" style="rounded=0;orthogonalLoop=1;jettySize=auto;html=1;entryX=0;entryY=0.5;entryDx=0;entryDy=0;labelBackgroundColor=none;fontColor=default;" edge="1" parent="1" source="AjMZNirVGoG8k2Hr6zvE-1" target="AjMZNirVGoG8k2Hr6zvE-2">
          <mxGeometry relative="1" as="geometry" />
        </mxCell>
        <mxCell id="AjMZNirVGoG8k2Hr6zvE-10" style="edgeStyle=none;rounded=0;orthogonalLoop=1;jettySize=auto;html=1;exitX=0.75;exitY=0;exitDx=0;exitDy=0;entryX=0.5;entryY=1;entryDx=0;entryDy=0;labelBackgroundColor=none;fontColor=default;" edge="1" parent="1" source="AjMZNirVGoG8k2Hr6zvE-1" target="NO3vthERd71kcZ7D5aYO-1">
          <mxGeometry relative="1" as="geometry">
            <mxPoint x="450" y="170" as="targetPoint" />
          </mxGeometry>
        </mxCell>
        <mxCell id="NO3vthERd71kcZ7D5aYO-21" style="edgeStyle=none;rounded=0;orthogonalLoop=1;jettySize=auto;html=1;exitX=1;exitY=0.75;exitDx=0;exitDy=0;entryX=0;entryY=0.5;entryDx=0;entryDy=0;labelBackgroundColor=none;fontColor=default;" edge="1" parent="1" source="AjMZNirVGoG8k2Hr6zvE-1" target="AjMZNirVGoG8k2Hr6zvE-6">
          <mxGeometry relative="1" as="geometry" />
        </mxCell>
        <mxCell id="NO3vthERd71kcZ7D5aYO-29" style="edgeStyle=none;rounded=0;orthogonalLoop=1;jettySize=auto;html=1;exitX=0;exitY=0.5;exitDx=0;exitDy=0;entryX=1;entryY=0.5;entryDx=0;entryDy=0;labelBackgroundColor=none;fontColor=default;" edge="1" parent="1" source="AjMZNirVGoG8k2Hr6zvE-1" target="NO3vthERd71kcZ7D5aYO-28">
          <mxGeometry relative="1" as="geometry" />
        </mxCell>
        <mxCell id="DR0pOvM6WuqmSCuRlfQh-89" style="edgeStyle=none;rounded=0;orthogonalLoop=1;jettySize=auto;html=1;exitX=0.5;exitY=1;exitDx=0;exitDy=0;entryX=0.25;entryY=0;entryDx=0;entryDy=0;" edge="1" parent="1" source="DR0pOvM6WuqmSCuRlfQh-92" target="DR0pOvM6WuqmSCuRlfQh-90">
          <mxGeometry relative="1" as="geometry">
            <mxPoint x="400" y="440" as="targetPoint" />
          </mxGeometry>
        </mxCell>
        <mxCell id="DR0pOvM6WuqmSCuRlfQh-103" style="edgeStyle=none;rounded=0;orthogonalLoop=1;jettySize=auto;html=1;exitX=0.75;exitY=1;exitDx=0;exitDy=0;entryX=0.5;entryY=0;entryDx=0;entryDy=0;" edge="1" parent="1" source="AjMZNirVGoG8k2Hr6zvE-1" target="DR0pOvM6WuqmSCuRlfQh-102">
          <mxGeometry relative="1" as="geometry" />
        </mxCell>
        <mxCell id="AjMZNirVGoG8k2Hr6zvE-1" value="Aluno" style="labelBackgroundColor=none;rounded=0;" vertex="1" parent="1">
          <mxGeometry x="350" y="220" width="110" height="50" as="geometry" />
        </mxCell>
        <mxCell id="AjMZNirVGoG8k2Hr6zvE-2" value="Nome" style="ellipse;whiteSpace=wrap;html=1;labelBackgroundColor=none;rounded=0;" vertex="1" parent="1">
          <mxGeometry x="495" y="220" width="55" height="25" as="geometry" />
        </mxCell>
        <mxCell id="AjMZNirVGoG8k2Hr6zvE-6" value="NÃºmero" style="ellipse;whiteSpace=wrap;html=1;labelBackgroundColor=none;rounded=0;" vertex="1" parent="1">
          <mxGeometry x="495" y="250" width="55" height="25" as="geometry" />
        </mxCell>
        <mxCell id="NO3vthERd71kcZ7D5aYO-3" style="edgeStyle=none;rounded=0;orthogonalLoop=1;jettySize=auto;html=1;exitX=0.5;exitY=0;exitDx=0;exitDy=0;entryX=0.75;entryY=1;entryDx=0;entryDy=0;labelBackgroundColor=none;fontColor=default;" edge="1" parent="1" source="NO3vthERd71kcZ7D5aYO-1" target="NO3vthERd71kcZ7D5aYO-2">
          <mxGeometry relative="1" as="geometry" />
        </mxCell>
        <mxCell id="NO3vthERd71kcZ7D5aYO-1" value="candidata-se" style="rhombus;labelBackgroundColor=none;rounded=0;" vertex="1" parent="1">
          <mxGeometry x="414" y="130" width="86" height="40" as="geometry" />
        </mxCell>
        <mxCell id="NO3vthERd71kcZ7D5aYO-7" style="edgeStyle=none;rounded=0;orthogonalLoop=1;jettySize=auto;html=1;exitX=0.25;exitY=1;exitDx=0;exitDy=0;entryX=0.5;entryY=0;entryDx=0;entryDy=0;labelBackgroundColor=none;fontColor=default;" edge="1" parent="1" source="NO3vthERd71kcZ7D5aYO-2" target="NO3vthERd71kcZ7D5aYO-5">
          <mxGeometry relative="1" as="geometry" />
        </mxCell>
        <mxCell id="NO3vthERd71kcZ7D5aYO-17" style="edgeStyle=none;rounded=0;orthogonalLoop=1;jettySize=auto;html=1;exitX=1;exitY=0.5;exitDx=0;exitDy=0;entryX=0;entryY=0.5;entryDx=0;entryDy=0;labelBackgroundColor=none;fontColor=default;" edge="1" parent="1" source="NO3vthERd71kcZ7D5aYO-2" target="NO3vthERd71kcZ7D5aYO-12">
          <mxGeometry relative="1" as="geometry" />
        </mxCell>
        <mxCell id="NO3vthERd71kcZ7D5aYO-18" style="rounded=0;orthogonalLoop=1;jettySize=auto;html=1;exitX=1;exitY=0.5;exitDx=0;exitDy=0;entryX=0;entryY=0.5;entryDx=0;entryDy=0;labelBackgroundColor=none;fontColor=default;" edge="1" parent="1" source="NO3vthERd71kcZ7D5aYO-2" target="NO3vthERd71kcZ7D5aYO-11">
          <mxGeometry relative="1" as="geometry" />
        </mxCell>
        <mxCell id="NO3vthERd71kcZ7D5aYO-19" style="edgeStyle=none;rounded=0;orthogonalLoop=1;jettySize=auto;html=1;exitX=1;exitY=0.75;exitDx=0;exitDy=0;entryX=0;entryY=0;entryDx=0;entryDy=0;labelBackgroundColor=none;fontColor=default;" edge="1" parent="1" source="NO3vthERd71kcZ7D5aYO-2" target="NO3vthERd71kcZ7D5aYO-10">
          <mxGeometry relative="1" as="geometry" />
        </mxCell>
        <mxCell id="NO3vthERd71kcZ7D5aYO-20" style="edgeStyle=none;rounded=0;orthogonalLoop=1;jettySize=auto;html=1;exitX=1;exitY=0.25;exitDx=0;exitDy=0;entryX=0;entryY=1;entryDx=0;entryDy=0;labelBackgroundColor=none;fontColor=default;" edge="1" parent="1" source="NO3vthERd71kcZ7D5aYO-2" target="NO3vthERd71kcZ7D5aYO-9">
          <mxGeometry relative="1" as="geometry" />
        </mxCell>
        <mxCell id="NO3vthERd71kcZ7D5aYO-2" value="Tema" style="labelBackgroundColor=none;rounded=0;" vertex="1" parent="1">
          <mxGeometry x="350" y="20" width="110" height="50" as="geometry" />
        </mxCell>
        <mxCell id="NO3vthERd71kcZ7D5aYO-8" style="edgeStyle=none;rounded=0;orthogonalLoop=1;jettySize=auto;html=1;exitX=0.5;exitY=1;exitDx=0;exitDy=0;entryX=0.25;entryY=0;entryDx=0;entryDy=0;labelBackgroundColor=none;fontColor=default;" edge="1" parent="1" source="NO3vthERd71kcZ7D5aYO-5" target="AjMZNirVGoG8k2Hr6zvE-1">
          <mxGeometry relative="1" as="geometry" />
        </mxCell>
        <mxCell id="NO3vthERd71kcZ7D5aYO-5" value="atribuÃ­do" style="rhombus;labelBackgroundColor=none;rounded=0;" vertex="1" parent="1">
          <mxGeometry x="310" y="130" width="86" height="40" as="geometry" />
        </mxCell>
        <mxCell id="NO3vthERd71kcZ7D5aYO-9" value="RemuneraÃ§Ã£o (â¬/mÃªs)" style="ellipse;whiteSpace=wrap;html=1;labelBackgroundColor=none;rounded=0;" vertex="1" parent="1">
          <mxGeometry x="497.5" y="-5" width="55" height="25" as="geometry" />
        </mxCell>
        <mxCell id="NO3vthERd71kcZ7D5aYO-10" value="Mestrados compatÃ­veis" style="ellipse;whiteSpace=wrap;html=1;labelBackgroundColor=none;rounded=0;" vertex="1" parent="1">
          <mxGeometry x="500" y="70" width="55" height="25" as="geometry" />
        </mxCell>
        <mxCell id="NO3vthERd71kcZ7D5aYO-11" value="DescriÃ§Ã£o" style="ellipse;whiteSpace=wrap;html=1;labelBackgroundColor=none;rounded=0;" vertex="1" parent="1">
          <mxGeometry x="520" y="45" width="55" height="25" as="geometry" />
        </mxCell>
        <mxCell id="NO3vthERd71kcZ7D5aYO-12" value="&lt;u&gt;TÃ­tulo&lt;/u&gt;" style="ellipse;whiteSpace=wrap;html=1;labelBackgroundColor=none;rounded=0;" vertex="1" parent="1">
          <mxGeometry x="520" y="20" width="55" height="25" as="geometry" />
        </mxCell>
        <mxCell id="NO3vthERd71kcZ7D5aYO-26" style="rounded=0;orthogonalLoop=1;jettySize=auto;html=1;exitX=1;exitY=0.5;exitDx=0;exitDy=0;entryX=0.5;entryY=1;entryDx=0;entryDy=0;labelBackgroundColor=none;fontColor=default;" edge="1" parent="1" source="NO3vthERd71kcZ7D5aYO-22" target="NO3vthERd71kcZ7D5aYO-24">
          <mxGeometry relative="1" as="geometry">
            <Array as="points">
              <mxPoint x="240" y="90" />
            </Array>
          </mxGeometry>
        </mxCell>
        <mxCell id="DR0pOvM6WuqmSCuRlfQh-86" style="edgeStyle=none;rounded=0;orthogonalLoop=1;jettySize=auto;html=1;exitX=0;exitY=0.5;exitDx=0;exitDy=0;entryX=0.5;entryY=0;entryDx=0;entryDy=0;" edge="1" parent="1" source="NO3vthERd71kcZ7D5aYO-22" target="DR0pOvM6WuqmSCuRlfQh-84">
          <mxGeometry relative="1" as="geometry">
            <Array as="points">
              <mxPoint x="-40" y="90" />
            </Array>
          </mxGeometry>
        </mxCell>
        <mxCell id="NO3vthERd71kcZ7D5aYO-22" value="Docente" style="labelBackgroundColor=none;rounded=0;" vertex="1" parent="1">
          <mxGeometry x="70" y="65" width="110" height="50" as="geometry" />
        </mxCell>
        <mxCell id="NO3vthERd71kcZ7D5aYO-25" style="edgeStyle=none;rounded=0;orthogonalLoop=1;jettySize=auto;html=1;exitX=1;exitY=0.5;exitDx=0;exitDy=0;entryX=0.5;entryY=0;entryDx=0;entryDy=0;labelBackgroundColor=none;fontColor=default;" edge="1" parent="1" source="NO3vthERd71kcZ7D5aYO-23" target="NO3vthERd71kcZ7D5aYO-24">
          <mxGeometry relative="1" as="geometry">
            <Array as="points">
              <mxPoint x="240" />
            </Array>
          </mxGeometry>
        </mxCell>
        <mxCell id="DR0pOvM6WuqmSCuRlfQh-85" style="edgeStyle=none;rounded=0;orthogonalLoop=1;jettySize=auto;html=1;exitX=0;exitY=0.5;exitDx=0;exitDy=0;entryX=0.5;entryY=0;entryDx=0;entryDy=0;" edge="1" parent="1" source="NO3vthERd71kcZ7D5aYO-23" target="DR0pOvM6WuqmSCuRlfQh-83">
          <mxGeometry relative="1" as="geometry">
            <Array as="points">
              <mxPoint x="-160" />
            </Array>
          </mxGeometry>
        </mxCell>
        <mxCell id="NO3vthERd71kcZ7D5aYO-23" value="Empresa" style="labelBackgroundColor=none;rounded=0;" vertex="1" parent="1">
          <mxGeometry x="70" y="-25" width="110" height="50" as="geometry" />
        </mxCell>
        <mxCell id="NO3vthERd71kcZ7D5aYO-27" style="edgeStyle=none;rounded=0;orthogonalLoop=1;jettySize=auto;html=1;exitX=1;exitY=0.5;exitDx=0;exitDy=0;entryX=0;entryY=0.5;entryDx=0;entryDy=0;labelBackgroundColor=none;fontColor=default;" edge="1" parent="1" source="NO3vthERd71kcZ7D5aYO-24" target="NO3vthERd71kcZ7D5aYO-2">
          <mxGeometry relative="1" as="geometry" />
        </mxCell>
        <mxCell id="NO3vthERd71kcZ7D5aYO-24" value="submete" style="rhombus;labelBackgroundColor=none;rounded=0;" vertex="1" parent="1">
          <mxGeometry x="200" y="25" width="80" height="40" as="geometry" />
        </mxCell>
        <mxCell id="NO3vthERd71kcZ7D5aYO-31" style="edgeStyle=none;rounded=0;orthogonalLoop=1;jettySize=auto;html=1;exitX=0;exitY=0.5;exitDx=0;exitDy=0;entryX=0.5;entryY=0;entryDx=0;entryDy=0;labelBackgroundColor=none;fontColor=default;" edge="1" parent="1" source="NO3vthERd71kcZ7D5aYO-28" target="NO3vthERd71kcZ7D5aYO-30">
          <mxGeometry relative="1" as="geometry">
            <Array as="points">
              <mxPoint x="115" y="245" />
            </Array>
          </mxGeometry>
        </mxCell>
        <mxCell id="NO3vthERd71kcZ7D5aYO-28" value="comeÃ§a" style="rhombus;labelBackgroundColor=none;rounded=0;" vertex="1" parent="1">
          <mxGeometry x="220" y="225" width="80" height="40" as="geometry" />
        </mxCell>
        <mxCell id="DR0pOvM6WuqmSCuRlfQh-77" style="edgeStyle=none;rounded=0;orthogonalLoop=1;jettySize=auto;html=1;exitX=0.5;exitY=1;exitDx=0;exitDy=0;entryX=1;entryY=0.5;entryDx=0;entryDy=0;" edge="1" parent="1" source="NO3vthERd71kcZ7D5aYO-30" target="DR0pOvM6WuqmSCuRlfQh-75">
          <mxGeometry relative="1" as="geometry" />
        </mxCell>
        <mxCell id="NO3vthERd71kcZ7D5aYO-30" value="Tese" style="labelBackgroundColor=none;rounded=0;" vertex="1" parent="1">
          <mxGeometry x="60" y="300" width="110" height="50" as="geometry" />
        </mxCell>
        <mxCell id="DR0pOvM6WuqmSCuRlfQh-81" style="rounded=0;orthogonalLoop=1;jettySize=auto;html=1;exitX=0;exitY=0.25;exitDx=0;exitDy=0;entryX=1;entryY=0;entryDx=0;entryDy=0;" edge="1" parent="1" source="DR0pOvM6WuqmSCuRlfQh-75" target="DR0pOvM6WuqmSCuRlfQh-78">
          <mxGeometry relative="1" as="geometry" />
        </mxCell>
        <mxCell id="DR0pOvM6WuqmSCuRlfQh-82" style="edgeStyle=none;rounded=0;orthogonalLoop=1;jettySize=auto;html=1;exitX=0;exitY=0.75;exitDx=0;exitDy=0;entryX=0;entryY=0;entryDx=0;entryDy=0;" edge="1" parent="1" source="DR0pOvM6WuqmSCuRlfQh-75" target="DR0pOvM6WuqmSCuRlfQh-79">
          <mxGeometry relative="1" as="geometry" />
        </mxCell>
        <mxCell id="DR0pOvM6WuqmSCuRlfQh-75" value="" style="triangle;whiteSpace=wrap;html=1;rotation=-90;" vertex="1" parent="1">
          <mxGeometry x="85" y="390" width="60" height="80" as="geometry" />
        </mxCell>
        <mxCell id="DR0pOvM6WuqmSCuRlfQh-78" value="Projeto" style="labelBackgroundColor=none;rounded=0;" vertex="1" parent="1">
          <mxGeometry x="-30" y="490" width="110" height="50" as="geometry" />
        </mxCell>
        <mxCell id="DR0pOvM6WuqmSCuRlfQh-79" value="DissertaÃ§Ã£o" style="labelBackgroundColor=none;rounded=0;" vertex="1" parent="1">
          <mxGeometry x="150" y="490" width="110" height="50" as="geometry" />
        </mxCell>
        <mxCell id="DR0pOvM6WuqmSCuRlfQh-88" style="edgeStyle=none;rounded=0;orthogonalLoop=1;jettySize=auto;html=1;exitX=0.5;exitY=1;exitDx=0;exitDy=0;entryX=0;entryY=0.5;entryDx=0;entryDy=0;" edge="1" parent="1" source="DR0pOvM6WuqmSCuRlfQh-83" target="DR0pOvM6WuqmSCuRlfQh-78">
          <mxGeometry relative="1" as="geometry">
            <Array as="points">
              <mxPoint x="-160" y="515" />
            </Array>
          </mxGeometry>
        </mxCell>
        <mxCell id="DR0pOvM6WuqmSCuRlfQh-83" value="Orientador externo" style="rhombus;labelBackgroundColor=none;rounded=0;" vertex="1" parent="1">
          <mxGeometry x="-200" y="140" width="80" height="40" as="geometry" />
        </mxCell>
        <mxCell id="DR0pOvM6WuqmSCuRlfQh-87" style="edgeStyle=none;rounded=0;orthogonalLoop=1;jettySize=auto;html=1;exitX=0.5;exitY=1;exitDx=0;exitDy=0;entryX=0;entryY=0.5;entryDx=0;entryDy=0;" edge="1" parent="1" source="DR0pOvM6WuqmSCuRlfQh-84" target="NO3vthERd71kcZ7D5aYO-30">
          <mxGeometry relative="1" as="geometry">
            <Array as="points">
              <mxPoint x="-40" y="325" />
            </Array>
          </mxGeometry>
        </mxCell>
        <mxCell id="DR0pOvM6WuqmSCuRlfQh-84" value="Orientador interno" style="rhombus;labelBackgroundColor=none;rounded=0;" vertex="1" parent="1">
          <mxGeometry x="-80" y="225" width="80" height="40" as="geometry" />
        </mxCell>
        <mxCell id="DR0pOvM6WuqmSCuRlfQh-97" style="edgeStyle=none;rounded=0;orthogonalLoop=1;jettySize=auto;html=1;exitX=0.5;exitY=1;exitDx=0;exitDy=0;entryX=1;entryY=0.5;entryDx=0;entryDy=0;" edge="1" parent="1" source="DR0pOvM6WuqmSCuRlfQh-90" target="DR0pOvM6WuqmSCuRlfQh-96">
          <mxGeometry relative="1" as="geometry" />
        </mxCell>
        <mxCell id="DR0pOvM6WuqmSCuRlfQh-90" value="Proposta de Tese" style="labelBackgroundColor=none;rounded=0;" vertex="1" parent="1">
          <mxGeometry x="350" y="560" width="110" height="50" as="geometry" />
        </mxCell>
        <mxCell id="DR0pOvM6WuqmSCuRlfQh-93" value="" style="edgeStyle=none;rounded=0;orthogonalLoop=1;jettySize=auto;html=1;exitX=0.25;exitY=1;exitDx=0;exitDy=0;" edge="1" parent="1" source="AjMZNirVGoG8k2Hr6zvE-1" target="DR0pOvM6WuqmSCuRlfQh-92">
          <mxGeometry relative="1" as="geometry">
            <mxPoint x="405.5714285714289" y="390" as="targetPoint" />
            <mxPoint x="405" y="270" as="sourcePoint" />
          </mxGeometry>
        </mxCell>
        <mxCell id="DR0pOvM6WuqmSCuRlfQh-92" value="Entrega" style="rhombus;labelBackgroundColor=none;rounded=0;" vertex="1" parent="1">
          <mxGeometry x="320" y="400" width="80" height="40" as="geometry" />
        </mxCell>
        <mxCell id="DR0pOvM6WuqmSCuRlfQh-98" style="edgeStyle=none;rounded=0;orthogonalLoop=1;jettySize=auto;html=1;exitX=0;exitY=0.25;exitDx=0;exitDy=0;entryX=1;entryY=0;entryDx=0;entryDy=0;" edge="1" parent="1" source="DR0pOvM6WuqmSCuRlfQh-96" target="DR0pOvM6WuqmSCuRlfQh-100">
          <mxGeometry relative="1" as="geometry">
            <mxPoint x="370" y="620" as="targetPoint" />
          </mxGeometry>
        </mxCell>
        <mxCell id="DR0pOvM6WuqmSCuRlfQh-99" style="edgeStyle=none;rounded=0;orthogonalLoop=1;jettySize=auto;html=1;exitX=0;exitY=0.75;exitDx=0;exitDy=0;entryX=0;entryY=0;entryDx=0;entryDy=0;" edge="1" parent="1" source="DR0pOvM6WuqmSCuRlfQh-96" target="DR0pOvM6WuqmSCuRlfQh-101">
          <mxGeometry relative="1" as="geometry">
            <mxPoint x="440" y="620" as="targetPoint" />
          </mxGeometry>
        </mxCell>
        <mxCell id="DR0pOvM6WuqmSCuRlfQh-96" value="" style="triangle;whiteSpace=wrap;html=1;rotation=-90;" vertex="1" parent="1">
          <mxGeometry x="375" y="620" width="60" height="80" as="geometry" />
        </mxCell>
        <mxCell id="DR0pOvM6WuqmSCuRlfQh-100" value="ProvisÃ³ria" style="labelBackgroundColor=none;rounded=0;" vertex="1" parent="1">
          <mxGeometry x="260" y="720" width="110" height="50" as="geometry" />
        </mxCell>
        <mxCell id="DR0pOvM6WuqmSCuRlfQh-101" value="Final" style="labelBackgroundColor=none;rounded=0;" vertex="1" parent="1">
          <mxGeometry x="445" y="720" width="110" height="50" as="geometry" />
        </mxCell>
        <mxCell id="DR0pOvM6WuqmSCuRlfQh-104" style="edgeStyle=none;rounded=0;orthogonalLoop=1;jettySize=auto;html=1;exitX=0.5;exitY=1;exitDx=0;exitDy=0;entryX=0.75;entryY=0;entryDx=0;entryDy=0;" edge="1" parent="1" source="DR0pOvM6WuqmSCuRlfQh-102" target="DR0pOvM6WuqmSCuRlfQh-90">
          <mxGeometry relative="1" as="geometry" />
        </mxCell>
        <mxCell id="DR0pOvM6WuqmSCuRlfQh-105" style="edgeStyle=none;rounded=0;orthogonalLoop=1;jettySize=auto;html=1;exitX=1;exitY=0;exitDx=0;exitDy=0;entryX=0;entryY=0.5;entryDx=0;entryDy=0;" edge="1" parent="1" source="DR0pOvM6WuqmSCuRlfQh-102" target="DR0pOvM6WuqmSCuRlfQh-112">
          <mxGeometry relative="1" as="geometry">
            <mxPoint x="510" y="390" as="targetPoint" />
          </mxGeometry>
        </mxCell>
        <mxCell id="DR0pOvM6WuqmSCuRlfQh-106" style="edgeStyle=none;rounded=0;orthogonalLoop=1;jettySize=auto;html=1;exitX=1;exitY=0.5;exitDx=0;exitDy=0;entryX=0;entryY=0.5;entryDx=0;entryDy=0;" edge="1" parent="1" source="DR0pOvM6WuqmSCuRlfQh-102" target="DR0pOvM6WuqmSCuRlfQh-110">
          <mxGeometry relative="1" as="geometry">
            <mxPoint x="530" y="410" as="targetPoint" />
          </mxGeometry>
        </mxCell>
        <mxCell id="DR0pOvM6WuqmSCuRlfQh-107" style="edgeStyle=none;rounded=0;orthogonalLoop=1;jettySize=auto;html=1;exitX=1;exitY=0.5;exitDx=0;exitDy=0;entryX=0;entryY=0.5;entryDx=0;entryDy=0;" edge="1" parent="1" source="DR0pOvM6WuqmSCuRlfQh-102" target="DR0pOvM6WuqmSCuRlfQh-109">
          <mxGeometry relative="1" as="geometry">
            <mxPoint x="530" y="440" as="targetPoint" />
          </mxGeometry>
        </mxCell>
        <mxCell id="DR0pOvM6WuqmSCuRlfQh-108" style="edgeStyle=none;rounded=0;orthogonalLoop=1;jettySize=auto;html=1;exitX=1;exitY=1;exitDx=0;exitDy=0;entryX=0;entryY=0.5;entryDx=0;entryDy=0;" edge="1" parent="1" source="DR0pOvM6WuqmSCuRlfQh-102" target="DR0pOvM6WuqmSCuRlfQh-111">
          <mxGeometry relative="1" as="geometry">
            <mxPoint x="520" y="460" as="targetPoint" />
          </mxGeometry>
        </mxCell>
        <mxCell id="DR0pOvM6WuqmSCuRlfQh-102" value="Defende" style="rhombus;labelBackgroundColor=none;rounded=0;" vertex="1" parent="1">
          <mxGeometry x="410" y="400" width="80" height="40" as="geometry" />
        </mxCell>
        <mxCell id="DR0pOvM6WuqmSCuRlfQh-109" value="JÃºri" style="ellipse;whiteSpace=wrap;html=1;labelBackgroundColor=none;rounded=0;" vertex="1" parent="1">
          <mxGeometry x="530" y="425" width="55" height="25" as="geometry" />
        </mxCell>
        <mxCell id="DR0pOvM6WuqmSCuRlfQh-110" value="Nota" style="ellipse;whiteSpace=wrap;html=1;labelBackgroundColor=none;rounded=0;" vertex="1" parent="1">
          <mxGeometry x="530" y="400" width="55" height="25" as="geometry" />
        </mxCell>
        <mxCell id="DR0pOvM6WuqmSCuRlfQh-111" value="DuraÃ§Ã£o" style="ellipse;whiteSpace=wrap;html=1;labelBackgroundColor=none;rounded=0;" vertex="1" parent="1">
          <mxGeometry x="520" y="450" width="55" height="25" as="geometry" />
        </mxCell>
        <mxCell id="DR0pOvM6WuqmSCuRlfQh-112" value="Tipo" style="ellipse;whiteSpace=wrap;html=1;labelBackgroundColor=none;rounded=0;" vertex="1" parent="1">
          <mxGeometry x="510" y="375" width="55" height="25" as="geometry" />
        </mxCell>
      </root>
    </mxGraphModel>
  </diagram>
</mxfile>
